<?xml version="1.0" standalone="no"?>
<!DOCTYPE svg PUBLIC "-//W3C//DTD SVG 20010904//EN"
 "http://www.w3.org/TR/2001/REC-SVG-20010904/DTD/svg10.dtd">
<svg version="1.0" xmlns="http://www.w3.org/2000/svg"
 width="400.000000pt" height="400.000000pt" viewBox="0 0 400.000000 400.000000"
 preserveAspectRatio="xMidYMid meet">
<metadata>
Created by potrace 1.16, written by Peter Selinger 2001-2019
</metadata>
<g transform="translate(0.000000,400.000000) scale(0.100000,-0.100000)"
fill="#000000" stroke="none">
<path d="M0 2000 l0 -2000 2000 0 2000 0 -2 1997 -3 1998 -1997 3 -1998 2 0
-2000z m2900 333 l0 -828 -24 -50 c-30 -64 -77 -111 -146 -144 -54 -25 -60
-26 -325 -32 -154 -3 -284 -11 -304 -17 -18 -6 -48 -23 -67 -37 -32 -25 -35
-25 -51 -9 -10 9 -38 26 -63 38 -41 19 -71 21 -315 27 -317 7 -349 14 -426 96
-80 83 -74 7 -77 946 l-2 837 900 0 900 0 0 -827z m-947 -1307 c48 -18 50 -18
120 3 66 19 96 21 340 21 l267 0 0 -65 0 -65 -262 0 c-280 0 -321 -5 -377 -48
-27 -20 -37 -23 -50 -13 -9 6 -36 22 -61 34 -43 21 -59 22 -327 25 l-283 3 0
65 0 65 293 -3 c252 -4 299 -7 340 -22z"/>
<path d="M1230 2276 l0 -753 23 -33 c47 -71 61 -74 362 -81 243 -5 276 -8 329
-27 l59 -21 61 21 c54 19 90 22 326 27 295 7 310 10 357 81 l23 33 0 753 0
754 -770 0 -770 0 0 -754z m940 505 l0 -48 60 -22 61 -22 37 30 38 30 117
-117 117 -116 -35 -36 -35 -36 27 -62 28 -62 47 0 48 0 0 -161 c0 -125 -3
-159 -12 -153 -7 4 -30 20 -50 37 -38 29 -38 29 -38 103 l0 74 -40 0 c-37 0
-40 2 -49 38 -6 20 -11 41 -11 45 0 5 -17 42 -37 83 l-37 74 27 28 27 28 -48
47 -48 47 -28 -29 -27 -29 -55 33 c-30 18 -83 41 -119 50 l-65 18 0 38 0 39
-64 0 -65 0 -3 -37 c-3 -36 -4 -37 -76 -59 -40 -12 -91 -34 -112 -48 -49 -32
-55 -32 -87 0 l-26 26 -43 -43 c-24 -24 -44 -48 -44 -53 0 -6 12 -20 26 -32
l25 -22 -32 -58 c-18 -31 -40 -85 -49 -118 l-17 -61 -41 -3 -42 -3 0 -53 c0
-49 -3 -55 -37 -82 -67 -53 -63 -59 -63 95 l0 140 51 3 50 3 24 60 25 60 -35
35 -35 36 120 119 120 119 38 -37 c22 -22 42 -34 47 -28 6 4 31 16 58 26 l47
18 0 48 0 49 170 0 170 0 0 -49z m-228 -601 c29 -11 81 -44 116 -74 60 -51 65
-53 107 -48 58 6 123 -11 182 -48 36 -23 59 -30 97 -30 55 0 129 -30 179 -72
27 -22 28 -26 25 -101 l-3 -79 -65 50 c-87 65 -101 72 -153 72 -55 0 -100 15
-154 52 -36 25 -51 28 -116 28 -81 0 -70 -5 -214 100 -40 28 -59 35 -109 38
-82 5 -119 -15 -317 -173 -87 -69 -162 -123 -166 -121 -4 3 -9 37 -9 75 l-2
70 118 94 c163 130 170 134 237 162 77 32 172 33 247 5z"/>
</g>
</svg>
